<?xml version="1.0" encoding="utf-8"?>
<!-- Generator: Adobe Illustrator 27.1.1, SVG Export Plug-In . SVG Version: 6.00 Build 0)  -->
<svg version="1.1" id="Layer_1" xmlns="http://www.w3.org/2000/svg" xmlns:xlink="http://www.w3.org/1999/xlink" x="0px" y="0px"
	 viewBox="0 0 56 56" style="enable-background:new 0 0 56 56;" xml:space="preserve">
<style type="text/css">
	.st0{fill:url(#SVGID_1_);}
	.st1{fill-rule:evenodd;clip-rule:evenodd;fill:url(#SVGID_00000176045604218901952900000001290807814651140258_);}
</style>
<radialGradient id="SVGID_1_" cx="-954.0357" cy="1046.337" r="1" gradientTransform="matrix(0 56 56 0 -58566.875 53426)" gradientUnits="userSpaceOnUse">
	<stop  offset="0" style="stop-color:#006FFF"/>
	<stop  offset="1" style="stop-color:#003C9E"/>
</radialGradient>
<path class="st0" d="M0,0h56v56H0V0z"/>
<linearGradient id="SVGID_00000067206822206626772670000003723722835621489568_" gradientUnits="userSpaceOnUse" x1="10.817" y1="12.0699" x2="30.023" y2="35.6637" gradientTransform="matrix(1 0 0 -1 0 58)">
	<stop  offset="0" style="stop-color:#C2C4CE"/>
	<stop  offset="0.397" style="stop-color:#D6D9E2"/>
	<stop  offset="1" style="stop-color:#FFFFFF"/>
</linearGradient>
<path style="fill-rule:evenodd;clip-rule:evenodd;fill:url(#SVGID_00000067206822206626772670000003723722835621489568_);" d="
	M34.3,15.7C33.4,16.8,33,18,33,19.3v14.8c0,0.4,0,0.8-0.1,1.2c0,0.4-0.1,0.8-0.2,1.2c0.9-0.2,1.8-0.5,2.6-0.8
	c0.8-0.4,1.5-0.9,2.1-1.4c0.6-0.6,1.2-1.3,1.6-2.1c0.5-0.8,0.9-1.7,1.2-2.7l0.6-2V14C37.4,14,35.1,14.6,34.3,15.7z M22,15.6h-1.6
	v1.5H22V15.6z M23.6,17.9H22v1.5h1.6V17.9z M22,19.8h-1.6v1.5H22V19.8z M20.4,22.1h-1.6v1.6h1.6V22.1z M17.2,14h-1.6v1.6h1.6V14z
	 M24.3,37.6c-0.5-1-0.7-2.1-0.7-3.5V22.9H22v5.7h-1.6v-3.4h-1.6v1.5h-1.6v-8.5h-1.6V31c0,1.6,0.3,3,0.9,4.4c0.6,1.3,1.4,2.5,2.5,3.5
	c1.1,1,2.4,1.8,4,2.3s3.3,0.8,5.3,0.8l-0.7-0.5c-0.5-0.3-1-0.8-1.6-1.5C25.3,39.4,24.8,38.6,24.3,37.6z M33.4,37
	c-1.2,0.3-2.6,0.4-4,0.3c-1.1-0.1-2-0.2-2.8-0.5c-0.8-0.2-1.6-0.6-2.2-0.9c0.4,1.8,1.2,3.2,2.4,4.1c1.1,0.9,1.8,1.4,1.8,1.4l0.9,0.5
	c1.8-0.1,3.4-0.5,4.8-1.1s2.6-1.4,3.6-2.4c1-1,1.7-2.1,2.2-3.4c0.5-1.3,0.8-2.7,0.8-4.2v-1.3c-0.4,1.4-1,2.6-1.7,3.6
	s-1.5,1.8-2.5,2.4S34.7,36.7,33.4,37z M20.4,17.1h-1.6v1.5h1.6V17.1z M41.8,14c0.1,0,0.3,0.1,0.4,0.2s0.2,0.2,0.2,0.4
	c0,0.2-0.1,0.3-0.2,0.4c-0.1,0.1-0.2,0.2-0.4,0.2c-0.1,0-0.3-0.1-0.4-0.2c-0.1-0.1-0.2-0.2-0.2-0.4c0-0.1,0.1-0.3,0.2-0.4
	S41.6,14,41.8,14z M41.8,15c0.1,0,0.2,0,0.3-0.1c0.1-0.1,0.1-0.2,0.1-0.3c0-0.1,0-0.2-0.1-0.3s-0.2-0.1-0.3-0.1
	c-0.1,0-0.2,0-0.3,0.1c-0.1,0.1-0.1,0.2-0.1,0.3c0,0.1,0,0.3,0.1,0.3C41.6,15,41.7,15,41.8,15z M42,14.5c0,0,0-0.1,0-0.1
	c0-0.1,0-0.1,0-0.1s-0.1,0-0.2,0h-0.2v0.6h0.1v-0.3h0.1l0.2,0.3h0.1l-0.2-0.3C41.9,14.6,42,14.6,42,14.5z M41.8,14.5
	c0,0,0.1,0,0.1,0s0,0,0-0.1c0,0,0-0.1,0-0.1c0,0-0.1,0-0.1,0h-0.1v0.2H41.8z"/>
</svg>
