<svg width="57" height="56" viewBox="0 0 57 56" fill="none" xmlns="http://www.w3.org/2000/svg">
<rect width="56" height="56" transform="translate(0.5)" fill="url(#paint0_radial_20_31144)"/>
<rect width="56" height="56" transform="translate(0.5)" fill="url(#paint1_radial_20_31144)"/>
<path fillRule="evenodd" clip-rule="evenodd" d="M33.0387 17.4531C32.3085 18.4063 31.9435 19.4375 31.9435 20.5469V33.25C31.9435 33.5781 31.9276 33.9141 31.8958 34.2578C31.8641 34.6016 31.8165 34.9453 31.753 35.2891C32.5625 35.1328 33.3046 34.8945 33.9792 34.5742C34.6538 34.2539 35.2609 33.8438 35.8006 33.3438C36.3403 32.8437 36.8085 32.2539 37.2054 31.5742C37.6022 30.8945 37.9355 30.125 38.2054 29.2656L38.7292 27.5781V16.0234C35.6657 16.0234 33.7689 16.5 33.0387 17.4531ZM22.4911 17.3359H21.1339V18.6484H22.4911V17.3359ZM23.8482 19.3281H22.4911V20.6406H23.8482V19.3281ZM22.4911 20.9922H21.1339V22.3047H22.4911V20.9922ZM21.1339 22.9609H19.7768V24.2969H21.1339V22.9609ZM18.4196 16H17.0625V17.3359H18.4196V16ZM24.4792 36.2266C24.0585 35.3828 23.8482 34.3906 23.8482 33.25V23.6172H22.4911V28.5391H21.1339V25.6094H19.7768V26.9219H18.4196V19.6562H17.0625V30.5312C17.0625 31.875 17.3085 33.125 17.8006 34.2812C18.2927 35.4375 19.003 36.4414 19.9315 37.293C20.8601 38.1445 21.995 38.8086 23.3363 39.2852C24.6776 39.7617 26.1974 40 27.8958 40L27.2649 39.5898C26.8442 39.3164 26.38 38.8984 25.872 38.3359C25.3641 37.7734 24.8998 37.0703 24.4792 36.2266ZM32.3006 35.7109C31.253 35.9453 30.1022 36.0391 28.8482 35.9922C27.9434 35.9453 27.1379 35.8164 26.4315 35.6055C25.7252 35.3945 25.1022 35.125 24.5625 34.7969C24.9276 36.3594 25.6022 37.5273 26.5863 38.3008C27.5704 39.0742 28.0942 39.4844 28.1577 39.5312L28.9673 39.9531C30.507 39.8594 31.88 39.5547 33.0863 39.0391C34.2927 38.5234 35.3165 37.8477 36.1577 37.0117C36.999 36.1758 37.6379 35.207 38.0744 34.1055C38.5109 33.0039 38.7292 31.8125 38.7292 30.5312V29.4062C38.3641 30.5938 37.88 31.6133 37.2768 32.4648C36.6736 33.3164 35.9554 34.0117 35.122 34.5508C34.2887 35.0898 33.3482 35.4766 32.3006 35.7109ZM21.1101 18.6719H19.7768V19.9844H21.1101V18.6719ZM39.462 16C39.5888 16 39.6997 16.0453 39.7948 16.1359C39.8899 16.2264 39.9375 16.3351 39.9375 16.462C39.9375 16.5978 39.8899 16.7111 39.7948 16.8016C39.6997 16.8922 39.5888 16.9375 39.462 16.9375C39.3351 16.9375 39.2264 16.8922 39.1359 16.8016C39.0453 16.7111 39 16.5978 39 16.462C39 16.3351 39.0453 16.2264 39.1359 16.1359C39.2264 16.0453 39.3351 16 39.462 16ZM39.462 16.8696C39.5707 16.8696 39.6635 16.8311 39.7405 16.7541C39.8175 16.6771 39.856 16.5797 39.856 16.462C39.856 16.3533 39.8175 16.2604 39.7405 16.1834C39.6635 16.1064 39.5707 16.0679 39.462 16.0679C39.3533 16.0679 39.2627 16.1064 39.1902 16.1834C39.1178 16.2604 39.0815 16.3533 39.0815 16.462C39.0815 16.5797 39.1178 16.6771 39.1902 16.7541C39.2627 16.8311 39.3533 16.8696 39.462 16.8696ZM39.6454 16.4552C39.668 16.4325 39.6793 16.3986 39.6793 16.3533C39.6793 16.2989 39.6658 16.2582 39.6386 16.231C39.6114 16.2038 39.5616 16.1902 39.4891 16.1902H39.2853V16.7337H39.3668V16.5027H39.462L39.6114 16.7337H39.6929L39.5435 16.5027C39.5888 16.4937 39.6227 16.4778 39.6454 16.4552ZM39.462 16.4348C39.4982 16.4348 39.5299 16.4303 39.5571 16.4212C39.5842 16.4121 39.5978 16.3895 39.5978 16.3533C39.5978 16.317 39.5865 16.2921 39.5639 16.2785C39.5412 16.2649 39.5118 16.2582 39.4755 16.2582H39.3668V16.4348H39.462Z" fill="url(#paint2_linear_20_31144)"/>
<defs>
<radialGradient id="paint0_radial_20_31144" cx="0" cy="0" r="1" gradientUnits="userSpaceOnUse" gradientTransform="translate(28) rotate(90) scale(56)">
<stop stop-color="#006FFF"/>
<stop offset="1" stop-color="#003C9E"/>
</radialGradient>
<radialGradient id="paint1_radial_20_31144" cx="0" cy="0" r="1" gradientUnits="userSpaceOnUse" gradientTransform="translate(28) rotate(90) scale(56)">
<stop stop-color="#005ED9"/>
<stop offset="1" stop-color="#003386"/>
</radialGradient>
<linearGradient id="paint2_linear_20_31144" x1="24.6189" y1="52.8963" x2="41.0812" y2="32.673" gradientUnits="userSpaceOnUse">
<stop stop-color="#C2C4CE"/>
<stop offset="0.39697" stop-color="#D6D9E2"/>
<stop offset="1" stop-color="white"/>
</linearGradient>
</defs>
</svg>
