<svg width="15" height="14" viewBox="0 0 15 14" fill="none" xmlns="http://www.w3.org/2000/svg">
<path fill-rule="evenodd" clip-rule="evenodd" d="M6 5.5V1H1.5V5.5H6ZM1.5 0H6C6.552 0 7 0.448 7 1V5.5C7 6.052 6.552 6.5 6 6.5H1.5C0.948 6.5 0.5 6.052 0.5 5.5V1C0.5 0.448 0.948 0 1.5 0ZM6 13V8.5H1.5V13H6ZM1.5 7.5H6C6.552 7.5 7 7.948 7 8.5V13C7 13.552 6.552 14 6 14H1.5C0.948 14 0.5 13.552 0.5 13V8.5C0.5 7.948 0.948 7.5 1.5 7.5ZM13.5 1V5.5H9V1H13.5ZM13.5 0H9C8.448 0 8 0.448 8 1V5.5C8 6.052 8.448 6.5 9 6.5H13.5C14.052 6.5 14.5 6.052 14.5 5.5V1C14.5 0.448 14.052 0 13.5 0ZM13.5 13V8.5H9V13H13.5ZM9 7.5H13.5C14.052 7.5 14.5 7.948 14.5 8.5V13C14.5 13.552 14.052 14 13.5 14H9C8.448 14 8 13.552 8 13V8.5C8 7.948 8.448 7.5 9 7.5Z" fill="#838691"/>
</svg>
